<?xml version="1.0" encoding="utf-8"?>
<!-- Generator: Adobe Illustrator 18.1.1, SVG Export Plug-In . SVG Version: 6.00 Build 0)  -->
<svg version="1.1" id="Layer_1" xmlns="http://www.w3.org/2000/svg" xmlns:xlink="http://www.w3.org/1999/xlink" x="0px" y="0px"
	 viewBox="0 0 1024 768" enable-background="new 0 0 1024 768" xml:space="preserve">
<g>
	<path fill="#AEC302" d="M585.9,271.1c0.1,0.8,0.1,1.6,0.2,2.4c0.1,2.1,0.5,2.3,2.5,1.6c1.4-0.5,2.5-1.5,3.6-2.5
		c1.8-1.7,3.5-3.6,5.6-5c4.7-3.2,10.1-2.2,13.4,2.4c4.4,6.2,4.6,17.7,0.3,24c-3.4,5-9,6-14,2.5c-2.1-1.5-3.7-3.4-5.5-5.1
		c-1.3-1.2-2.7-2.3-4.4-2.7c-0.9-0.2-1.4,0-1.5,1c-0.3,6.2-1.5,12.2-2.2,18.3c-0.8,0.6-1.7,0.9-2.6,1.1c-14.5,3.7-29,7.3-43.5,11
		c-1.9,0.5-3,0-4.3-1.5c-3.3-4-7.5-6.1-12.9-5c-17.3,3.6-34.7,5.9-52.3,6.8c-28.2,1.6-56.2-0.4-83.8-6.5c-6.4-1.4-11.5,0.1-15.5,5.2
		c-0.7,0.9-1.4,1.2-2.6,0.9c-16-4.2-32.1-8.4-48.1-12.6c-1.1-6.3-2.1-12.7-2.3-19.1c0-1.4-0.6-1.6-1.7-1c-1.9,0.9-3.3,2.3-4.8,3.7
		c-1.3,1.2-2.5,2.5-3.9,3.5c-4.2,3-9.6,2.2-12.9-1.8c-5.1-6.3-5.1-19.2-0.1-25.5c3.2-4.1,8.3-4.9,12.7-2.1c2.1,1.3,3.7,3.2,5.5,4.8
		c0.1,0.1,0.3,0.3,0.5,0.4c1.4,1.1,2.8,2.9,4.4,2.4c1.2-0.3,0.3-2.7,0.8-4.1c0.1-0.2,0.1-0.4,0.1-0.6c0.7,0,0.8,0.6,1,1.1
		c4.5,11.6,11.6,21.3,21.5,28.9c10.4,8,22.2,12.4,35.3,13.4c7.6,0.6,15.1-0.2,22.5-2.3c13.4-3.8,24.6-11,33.3-21.7
		c12.5-15.4,16.8-33.2,13.8-52.7c-2.1-13.9-8.6-25.7-18.4-35.6c-4.6-4.7-10-8.5-15.9-11.5c-11.4-5.8-23.4-8.4-36.2-7.2
		c-7.7,0.8-15.1,2.5-22.1,6.1c-1.7,0.8-3.3,1.9-5.3,1.8c-2.6-0.1-5.3,0-7.9-0.2c-6.1-0.6-9.6-5.3-8.7-11.3
		c1.2-7.4,9.5-15.9,16.9-17.3c5.7-1.1,10.3,2.1,11.5,7.9c0.4,2,0.4,4,0.4,6.1c0,2.1,0.4,4.2,1.1,6.2c0.5,1.4,1,1.4,2.1,0.5
		c2.6-2.2,5.4-4.1,8-6.3c5.2-4.3,10.8-7.9,16.8-11c1.6-0.8,3.1-1.7,4.6-2.6c0.7-0.4,1.1-0.7,0.8-1.8c-3.4-11.2-7.8-22.1-11.8-33.1
		c-2.6-7.2-7.3-12.2-14.5-14.9c-1.9-0.7-3.8-1.6-5.5-2.6c-5.4-3-7.6-8.9-5.6-14.8c0.8-2.3,2-4.3,3.7-6c5.4-5.6,11.9-8.7,19.6-9.8
		c2.3,0,4.5,0,6.8,0c8.7,1.4,13,7.9,10.6,16.3c-0.6,2.1-1.3,4.3-2.2,6.3c-2.1,5.3-2.1,10.5-0.5,15.9c2,6.5,5,12.6,8.1,18.6
		c2.6,5.1,5.5,10.1,7.7,15.4c1.1,2.7,1.1,2.8,3.9,1.9c10.5-3.2,21.2-5,32.1-5.7c2.6-0.2,2.8-0.5,1.7-2.9c-1.4-2.9-3.7-5.2-5.9-7.4
		c-4.9-4.9-4.1-12,1.9-15.5c7.4-4.2,15.1-4.2,22.5-0.2c5.7,3.1,6.8,9.7,2.7,14.7c-1.3,1.6-2.7,3-4.1,4.5c-1.3,1.4-2.5,3-3.2,4.9
		c-0.5,1.4-0.2,2,1.3,2.1c2.6,0.1,5.1,0.4,7.7,0.7c8.1,0.8,15.8,3.3,23.5,5.4c1.9,0.5,2.7,0,3.6-1.7c4.8-9.6,9.2-19.3,13.8-29
		c4.1-8.5,4.6-16.9,0.5-25.4c-0.8-1.7-1.5-3.5-1.8-5.4c-1-5.8,3.3-11.5,9.8-13.3c0.8-0.2,1.8-0.1,2.4-0.8c1.8,0,3.5,0,5.3,0
		c2.1,0.5,4.3,1,6.4,1.6c6.6,2.1,12.5,5.3,16.4,11.3c4.1,6.4,2.2,14-4.3,17.9c-1.6,0.9-3.2,1.8-4.9,2.4c-8,2.9-12.9,8.6-15.6,16.5
		c-3.7,10.7-7.4,21.4-11.2,32c-0.5,1.3-0.1,1.9,1.1,2.5c9.6,5,18.6,10.9,26.7,18c1.3,1.1,2.1,1.1,2.5-0.7c0.3-1.3,0.7-2.6,0.9-4
		c0.2-2.3,0.3-4.6,0.5-6.9c0.6-7.3,6-11.2,13.1-8.9c7.5,2.3,12.7,7.4,15.2,14.9c2.2,6.4-1.1,11.6-7.7,12.8c-3,0.5-6.1,0.5-9.1,0.8
		c-1.3,0.1-2.4-0.3-3.5-0.8c-6.7-3.1-13.7-5.1-21.2-5.8c-8.3-0.8-16.4-0.1-24.4,2.4c-12.3,3.8-22.7,10.6-31.4,20.1
		c-6,6.6-10.2,14.3-12.8,22.8c-2.8,9-3.5,18.2-2.5,27.6c0.8,7.8,3,15.2,6.6,22.2c4.2,8.4,10.1,15.5,17.4,21.4
		c14.5,11.9,31.1,16.1,49.5,14c8.2-1,16.1-3.6,23.4-7.6c12.1-6.6,21.5-15.8,27.1-28.6C584.1,273.7,584.7,272.2,585.9,271.1z"/>
	<path fill="#AEC402" d="M583.6,216.6c6.9-2.5,13.7-4.9,20.6-7.4c1.2-0.4,2-1,2.7-2.2c1.3-2.5,3.4-4.1,6.4-3.8c1.8,0.2,3-0.6,4-1.9
		c1.7-2.1,2.9-4.6,4-7c0.9-2,1.8-4.1,2.9-6c3.6-6.2,10.5-8.1,16.8-4.6c4.5,2.4,7.5,6.4,9.9,10.7c1.6,2.9,2.7,5.9,3.4,9.1
		c0.2,0.7,0,1.6,0.7,2.2c0,2.4,0,4.9,0,7.3c-0.6,0.6-0.5,1.5-0.8,2.3c-2,6.4-7.3,9.7-13.9,8.6c-2.8-0.5-5.4-1.4-7.9-2.4
		c-6.4-2.6-12.8-2.4-19.2,0c-3.9,1.5-7.5,3.4-11.2,5.3c-4.1,2.1-8.1,4.3-12.5,5.8c-1-0.3-1-1.2-1.2-1.9c-1-3.3-1.8-6.7-3.3-9.9
		C584.5,219.4,583.8,218.1,583.6,216.6z"/>
	<path fill="#D9F0F9" d="M318.3,307.6c16,4.2,32.1,8.4,48.1,12.6c1.2,0.3,1.9,0,2.6-0.9c4-5.1,9-6.6,15.5-5.2
		c27.6,6,55.6,8,83.8,6.5c17.6-1,35-3.2,52.3-6.8c5.4-1.1,9.6,1,12.9,5c1.3,1.5,2.4,2,4.3,1.5c14.5-3.7,29-7.4,43.5-11
		c0.9-0.2,1.8-0.5,2.6-1.1c1.4-0.1,1.6,0.8,1.2,1.8c-1,3.1-1.7,6.3-2.3,9.6c-0.3,1.7-1.4,2.5-2.9,2.9c-13.7,2.9-27.2,6.6-40.7,10.4
		c-0.9,0.3-1.3,0.7-1.3,1.7c0,6.9-0.1,13.8-0.1,20.7c0,1.5,0.6,2.3,2.2,2.4c7,0.3,13.9,0.7,20.9,1.1c0.5,0,1.1-0.1,1.6-0.2
		c0,0.6,0.1,1.2-0.3,1.7c-2.2,3.1-4.3,6.3-6.5,9.4c-0.6,0.9-1.5,1.5-2.5,1.9c-4.8-1.7-9.9-1-14.9-1.4c-0.8-0.1-1.1,0.4-1.3,1
		c-1.8,5.6-6.1,8.6-11.3,10.6c-4.4,1.7-9,2.9-13.6,4.1c-37.5,9.2-75.1,9.8-112.8,1.8c-8.1-1.7-16.2-3.4-23.8-6.7
		c-3.3-1.5-6.1-3.6-7.8-6.8c-0.9-1.8-2.2-2-4-1.9c-4.9,0.4-9.7,1.1-14.6,0.6c-0.5-2.5-2.5-4.2-3.8-6.3c-1.2-2-2.9-3.7-3.9-5.7
		c7.3-0.4,14.6-0.8,21.9-1.2c1.4-0.1,1.8-0.5,1.8-1.9c0-7.2,0.1-14.4,0.2-21.5c0-3.1,0-3.2-3-4c-8.9-2.4-17.8-4.7-26.7-7
		c-4.4-1.1-8.7-2.4-13.2-3.1c-1-0.5-1.6-1.4-1.9-2.5c-0.8-3.3-1.7-6.6-2.5-9.9C317.7,308.8,317.5,308.1,318.3,307.6z"/>
	<path fill="#AEC402" d="M349.1,372.6c4.9,0.5,9.7-0.2,14.6-0.6c1.8-0.1,3.1,0.1,4,1.9c1.7,3.2,4.5,5.4,7.8,6.8
		c7.6,3.3,15.7,5,23.8,6.7c37.7,8,75.3,7.4,112.8-1.8c4.6-1.1,9.2-2.3,13.6-4.1c5.2-2,9.5-5,11.3-10.6c0.2-0.6,0.5-1.1,1.3-1
		c5,0.4,10-0.2,14.9,1.4c1.4,1.1,3.2,1.1,4.8,1.2c1.8,0.1,3.7,0,5.5,0.1c6.9,0.2,10.8,5,9.6,11.8c-1.2,7.1-9.6,15.6-16.7,17
		c-6.1,1.2-11.2-2.8-11.6-9.1c-0.2-2.3,0-4.6-0.2-6.9c-0.1-1.5-0.1-3.5-1.6-4.2c-1.2-0.5-2,1.3-3,2.1c-7.8,6.8-16.5,12.3-25.5,17.4
		c-1.7,1-2.2,1.9-1.5,3.8c3.4,10.4,7.4,20.5,11.1,30.7c2.6,7.2,7.4,12.2,14.6,14.8c1.6,0.6,3.2,1.4,4.8,2.2
		c6.4,3.4,8.6,10.3,5.4,16.8c-1.4,2.9-3.5,5.3-6.1,7.2c-6.9,5.1-14.6,8-23.3,7c-6.8-0.8-13.7-7.5-10.4-16.7c0.6-1.8,1.2-3.6,1.9-5.3
		c2.8-6.5,2.6-13-0.1-19.4c-4.5-10.6-9.8-20.8-14.8-31.2c-0.8-1.6-1.9-1.2-3.1-0.8c-7.3,2.5-14.7,4.2-22.3,5.3
		c-3.6,0.5-7.1,0.9-10.7,1.1c-2.2,0.1-2.4,0.5-1.3,2.4c1.2,2.2,3.1,3.7,4.8,5.5c1.8,1.8,3.3,3.8,3.6,6.5c0.5,4.2-1.1,7.6-4.7,9.6
		c-7.3,4.1-15,4.2-22.4,0.5c-6.3-3.2-7.3-10-2.8-15.4c1.8-2.1,4-3.9,5.5-6.2c1.6-2.4,1.4-2.7-1.4-2.9c-9.6-0.7-19-2.6-28.3-5.3
		c-5.8-1.7-4.4-2.1-7,3.1c-4.5,8.9-8.6,18.1-12.8,27.2c-2.6,5.8-2.9,11.6-0.9,17.6c0.9,2.7,1.9,5.4,2.7,8.1
		c2.1,7.4-1.4,13.8-8.9,15.5c-9.6,2.3-18-0.8-25.7-6.4c-2.3-1.7-4.1-3.8-5.4-6.2c-3.5-6.4-1.3-13.8,5.1-17.3
		c2.5-1.4,5.1-2.4,7.7-3.6c5.2-2.5,8.8-6.3,10.9-11.5c4.4-10.6,8.3-21.5,11.8-32.4c0.6-1.8,0.2-2.7-1.4-3.6
		c-9.7-4.9-18.7-11-26.8-18.2c-1.3-1.1-1.8-0.6-2.2,0.8c-0.4,1.4-0.4,2.8-0.4,4.2c0,1.8,0,3.7-0.2,5.5c-0.8,6.3-5.6,9.6-11.8,8.2
		c-5.8-1.3-10.2-4.9-13.6-9.6c-1.7-2.4-3-4.9-3.3-7.9c-0.5-4.9,2.1-9,6.9-10.2c2-0.5,4.1-0.6,6.2-0.8
		C345.6,373.1,347.4,373.2,349.1,372.6z"/>
	<path fill="#F7A023" d="M345.9,188.7c2,0.1,3.7-1,5.3-1.8c7-3.5,14.4-5.3,22.1-6.1c12.8-1.3,24.8,1.4,36.2,7.2
		c5.9,3,11.3,6.8,15.9,11.5c9.7,9.9,16.2,21.7,18.4,35.6c3,19.5-1.3,37.3-13.8,52.7c-8.7,10.7-19.9,17.9-33.3,21.7
		c-7.4,2.1-14.9,2.9-22.5,2.3c-13-1-24.9-5.4-35.3-13.4c-9.9-7.6-17-17.3-21.5-28.9c-0.2-0.5-0.2-1.1-1-1.1
		c-0.3-4.2-1.9-8.1-2.5-12.3c-1-7.2-0.8-14.3,0.3-21.4c0.1-0.7,0.1-1.3,0.1-2c0.9-1.4,1-3,1.4-4.6c1.1-4,3.1-7.6,4.3-11.5
		c2.2-3.5,4.4-7,6.8-10.3c4.6-6.3,10.4-11.3,17-15.4C344.7,190.3,345.8,190,345.9,188.7z M379,190.5c-30.6-0.1-55.7,24.8-55.7,55.2
		c-0.1,30.8,24.7,56.1,55.1,56.2c31,0.1,56.3-24.7,56.4-55.3C434.8,215.5,410.1,190.6,379,190.5z"/>
	<path fill="#F7A023" d="M583.6,216.6c0.1,1.5,0.9,2.8,1.5,4.1c1.5,3.2,2.3,6.6,3.3,9.9c0.2,0.7,0.2,1.7,1.2,1.9
		c-0.7,1.4-0.5,2.9-0.2,4.4c1.9,9.6,0.9,19.1-2,28.3c-0.6,1.9-1.3,3.8-1.5,5.9c-1.2,1.1-1.8,2.5-2.4,3.9
		c-5.7,12.7-15.1,21.9-27.1,28.6c-7.3,4-15.1,6.7-23.4,7.6c-18.4,2.1-35-2.1-49.5-14c-7.3-6-13.2-13-17.4-21.4
		c-3.5-7-5.7-14.4-6.6-22.2c-1-9.4-0.3-18.6,2.5-27.6c2.6-8.5,6.8-16.2,12.8-22.8c8.7-9.5,19.1-16.3,31.4-20.1
		c8-2.4,16.1-3.2,24.4-2.4c7.4,0.7,14.4,2.7,21.2,5.8c1.1,0.5,2.2,0.9,3.5,0.8c0.1,0.8,0.8,1.1,1.3,1.4c11,6.2,19.5,14.7,25.5,25.8
		C582.6,215.3,583.2,215.9,583.6,216.6z M524.6,190.5c-30.4-0.1-55.6,24.8-55.7,55.1c-0.1,31,24.7,56.2,55.2,56.3
		c31.1,0.1,56.2-24.7,56.3-55.4C580.5,215.4,555.8,190.6,524.6,190.5z"/>
	<path fill="#AEC402" d="M322.2,321.9c4.5,0.7,8.8,2,13.2,3.1c8.9,2.3,17.8,4.6,26.7,7c3.1,0.8,3.1,0.9,3,4
		c-0.1,7.2-0.2,14.4-0.2,21.5c0,1.4-0.3,1.8-1.8,1.9c-7.3,0.3-14.6,0.8-21.9,1.2c-3.7-6.1-8.1-11.8-11-18.4
		c-0.6-1.3-1.5-0.9-2.4-0.6c-5.8,2-11.5,4-17.3,6c-6,2.1-12,4.3-17.7,7.1c-4.2,2-7.3,5.1-9.2,9.3c-1.2,2.7-2.5,5.4-3.9,8
		c-3.9,7.1-11.4,9.1-18.3,4.7c-8.6-5.4-14.6-19.6-12.5-29.5c1.8-8.1,8.1-12,16.1-9.8c1.6,0.4,3.1,0.9,4.6,1.6
		c7.8,3.7,15.5,3,23.1-0.6c7.2-3.4,14.4-7,21.5-10.5c1.9-0.9,3.9-2,5.9-2.7C322.1,324.6,322.7,323.7,322.2,321.9z"/>
	<path fill="#AEC402" d="M562.4,358.5c-0.5,0.1-1.1,0.2-1.6,0.2c-7-0.4-13.9-0.8-20.9-1.1c-1.7-0.1-2.3-0.9-2.2-2.4
		c0.1-6.9,0.1-13.8,0.1-20.7c0-1,0.4-1.4,1.3-1.7c13.5-3.8,27-7.4,40.7-10.4c0,0.7,0.2,1.3,1,1.6c9.6,4.3,18.8,9.4,28.4,13.6
		c3.1,1.3,6.3,2.4,9.6,3.2c4.2,1,8.3,0.7,12.4-0.9c1.9-0.7,3.8-1.5,5.7-2.2c9.3-3.4,17,1.4,17.7,11.3c0.7,9.9-2.5,18.7-9.7,25.7
		c-3.6,3.4-7.8,5.1-12.8,3.8c-3.4-0.9-6-2.8-7.6-5.9c-1.1-2-2-4-2.9-6.1c-2.7-6.5-7.3-11.2-13.9-13.7c-11-4.1-22.1-8.1-33.3-11.8
		c-0.7-0.2-1.5-0.8-2,0.4c-2.4,5.9-6.2,11.1-9.6,16.5C562.5,358.1,562.5,358.3,562.4,358.5z"/>
	<path fill="#AEC402" d="M320.1,216.6c-1.1,3.9-3.2,7.5-4.3,11.5c-0.4,1.5-0.5,3.2-1.4,4.6c-6-2.4-11.7-5.7-17.6-8.4
		c-3.3-1.5-6.7-3-10.3-3.9c-3.9-0.9-7.7-0.6-11.4,0.7c-2.4,0.8-4.7,1.8-7,2.6c-9.2,3.2-17.2-1.9-17.8-11.7
		c-0.6-10.4,2.9-19.3,10.8-26.3c6.2-5.5,14.4-4.3,19.4,2.7c1.3,1.8,2.3,3.8,3,6c1.8,5.9,5.7,9.9,11.1,12.5
		C302.9,210.9,311.5,213.8,320.1,216.6z"/>
	<path fill="#FCFCFC" d="M379,190.5c31,0.1,55.8,24.9,55.8,56.1c0,30.6-25.3,55.4-56.4,55.3c-30.4-0.1-55.1-25.3-55.1-56.2
		C323.4,215.3,348.4,190.5,379,190.5z M378.8,273.6c15.2,0,27.7-12.1,27.8-27c0.1-15.3-12.2-27.8-27.2-27.8
		c-15.2,0-27.7,12.1-27.8,27C351.5,261.1,363.7,273.6,378.8,273.6z"/>
	<path fill="#FCFCFB" d="M524.6,190.5c31.2,0.1,55.8,24.9,55.8,56c-0.1,30.7-25.2,55.5-56.3,55.4c-30.5-0.1-55.2-25.3-55.2-56.3
		C469,215.4,494.2,190.5,524.6,190.5z M552.1,246.1c-0.1-15.2-12.4-27.4-27.7-27.3c-15.1,0.1-27.2,12.4-27.2,27.6
		c0,15.1,12.5,27.4,28,27.3C540.1,273.6,552.1,261.2,552.1,246.1z"/>
	<path fill="#1C191C" d="M378.8,273.6c-15,0-27.3-12.6-27.2-27.8c0.1-14.9,12.5-27.1,27.8-27c15,0,27.3,12.6,27.2,27.8
		C406.5,261.5,394,273.7,378.8,273.6z M378.7,246.2c5.5,0,10-4.4,10-9.7c0-5.2-4.5-9.7-9.6-9.7c-5.4,0-9.6,4.2-9.6,9.5
		C369.4,241.9,373.5,246.2,378.7,246.2z"/>
	<path fill="#1C191C" d="M552.1,246.1c0.1,15.2-12,27.5-27,27.6c-15.4,0.1-28-12.2-28-27.3c0-15.2,12.2-27.5,27.2-27.6
		C539.7,218.7,552,230.8,552.1,246.1z M524.4,246.2c5.5,0,9.9-4.3,10-9.7c0-5.2-4.4-9.6-9.5-9.7c-5.4,0-9.8,4.2-9.7,9.6
		C515.1,242,519.2,246.2,524.4,246.2z"/>
	<path fill="#F9F9F9" d="M378.7,246.2c-5.2,0-9.3-4.3-9.2-9.8c0.1-5.4,4.2-9.5,9.6-9.5c5.1,0,9.5,4.5,9.6,9.7
		C388.7,241.9,384.2,246.3,378.7,246.2z"/>
	<path fill="#F9F9F9" d="M524.4,246.2c-5.2,0-9.3-4.3-9.3-9.8c0-5.4,4.3-9.6,9.7-9.6c5.1,0,9.5,4.5,9.5,9.7
		C534.3,241.9,529.9,246.3,524.4,246.2z"/>
</g>
<g>
	<path fill="#FDFCFD" d="M518.4,222.9c0,0,8-5.2,12-7.3s8.4,1.3,8.4,1.3l-4.5,14.8l20.3-17.3l17.6,4.7h8.7l14.6,13.4
		c0,0,1.2,5.8,0.9,7.3c-0.2,1.5-2,3.7-2,3.7l4.4,4.9l-7.6,6.7H556h-29l-13.5-15.2l3-14.3L518.4,222.9z"/>
	<path fill="#3A033E" d="M518.7,223.7c-1.1,5.4-0.9,10.4,4,15c-2.3-16.1,2.2-18.4,12.8-16.9c-1-3.2-3.7-4.1-6.9-5.3
		c4.9-3,9.8-4.5,14.9-5.6c3.6-0.8,7.2-1.1,10.8-1.6c7.9-1.1,14.8,0.7,19.6,8c1-2.5-0.7-4.1-0.4-6.3c11.6,2.8,21.4,7.1,22.1,21.4
		c-4.3-3.2-8.4-6.7-13-9.5c-2.5-1.5-4-2.2-4.4,1.7c-0.2,2.9-1.8,3.3-3.9,1.3c-0.2-0.2-0.6-0.4-0.8-0.6c-8.4-8.1-17.2-5.9-25.8-0.6
		c-1.4,0.8-6,1.1-2.3,4.9c0.8,0.8-1,1.3-1.8,1.8c-2.5,1.4-4.8,2.9-6.7,5.6c3.1,0.5,4.6,2,5.8,5c2.2,5.5,7.1,7.6,12.9,7.7
		c5.6,0.1,11.3-0.6,18.4,1c-5.4-5.5-8.9-11.1-16.6-9.8c-0.6,0.1-1.3,0-2-0.1c-3.1-0.5-6.4-1.1-8.2-3.9c-0.8-1.2,6.6-5.4,9.5-5.1
		c1.8,0.2,3.5,0.9,5.2,1.7c5.1,2.3,5.1,2.3,10.4,0.1c-1.6,3.4-2.5,6.2,0.9,8.7c2.5,1.8,4.4,4.5,6.7,6.6c0.4,0.3,1.6-0.1,2.3-0.3
		c4.1-1.2,8.2-0.7,13.7-0.3c-4.5-4.6-9.5-7.5-11.6-13.3c3.1,1.4,5.5,2.5,9,0.7c2.2-1.2,3.4,2.3,3,4.7c-0.7,3.7,0.3,4.8,4,4.1
		c1.1-0.2,1.3,0.8,1.7,1.4c12,18.1,15.6,37.4,8.3,59.1c-1.5-2.1-2.7-3.8-3.8-5.5c-0.5,0.2-1,0.3-1.4,0.5
		c-2.3,16.4-10.1,29.3-24.2,38.5c-0.8-2.8-1.5-5.3-2.3-8.3c-6.6,4-13.4,7.2-20.9,8.6c-9.2,1.7-18.2,1-26.9-2.5
		c-3.3-1.3-4.1-2.9-3.4-6.4c2.1-10.5,2.6-21.1-0.5-32.7c-5.7,8.1-11.3,15.5-19.1,21.6c-6.4-13.1-7.4-26.5-4.5-41
		c-3.8,1.1-7.2,2-11.2,3.2c1.3-12.4,5.9-23,12.9-32.7c-0.2-0.3-0.3-0.7-0.5-0.8c-6.1-1-6.2-1-2.9-6.2c4.5-7.1,9.5-13.6,16.7-18.2
		C518.3,223.4,518.5,223.5,518.7,223.7z M587.9,264c-0.6-1.5,0.8-3.5-1.4-4.9c-4.7-3-9.2-5-14.5-1.3c-2.8,2-5.9,3.7-8.8,5.6
		c-0.9,0.6-1.7,1.1-1.2,2.7c3.7,13,8.6,14.8,19.6,7c1-0.7,1.8-1.5,2.8-2.1C587,269.4,588.6,267.3,587.9,264z M572.3,285.8
		c1.6,2.6,2.6,6.6,4.6,7.1c3.7,0.9,6.8-2.6,10.3-4.4c0.4,3.1,0.8,5.9,1.2,9c3.9-2.8,5.8-6.5,7.3-10.6c1.3-3.5,0-6.5-2.4-8.6
		c-2.4-2.1-5.7-1.5-8.3,0.4C581.2,281.5,577.1,284,572.3,285.8z M599.2,256.2c-9.6,2.7-7.6,13.6,0.9,19.9
		C602.6,269.3,601.9,262.7,599.2,256.2z"/>
	<path fill="#3E0842" d="M580.6,191.6c-1,4.4-2.3,8.7-3,13.1c-0.4,2.4-1,3.1-3.4,2.5c-17.3-4.3-33.6-1.4-49.4,6.9
		c-2.2-5.3-4-10.7-7.8-15.6c4.4,0.2,6.8,3.6,10,5c0.2,0.4,0.5,0.9,0.9,0.5c0.2-0.2-0.1-0.8-0.1-1.2c-0.6-4.1-1.2-8.2-2-13.5
		c5.9,4,11,7.5,16.3,11.1c1.9-5.4,3.6-10.4,5.5-15.8c3.4,3.6,5.3,7.9,7.7,11.7c1.2,1.9,1.9,2.3,3.5,0.4c3.4-4,7.1-7.9,11.1-12.3
		c1,5.1,1.1,9.6,1.2,14.8c3.5-2.6,5.3-6.5,8.9-8.1C580.3,191.3,580.4,191.5,580.6,191.6z"/>
	<path fill="#3E0842" d="M570.9,420.3c-10.6,3.4-18.8-2.3-17.7-12.3c0.9-7.6,9-12.3,15.9-9.2c0.8,0.3,1.1,1.4,2.4,0.8
		c6-2.5,6-2.4,6,3.7c0,5.2-0.2,10.3,0,15.5c0.2,5.2-1,9.6-6.1,12c-5.2,2.4-10.3,2.1-15.2-0.9c-1.5-0.9-2.8-1.9-1-3.8
		c1.2-1.2,1.4-3.5,4.4-1.7C565.8,428,570.2,426.1,570.9,420.3z M565.4,415.4c3.5-0.3,5.7-2,6-5.5c0.3-3.8-2-6.2-5.5-6.3
		c-3.6-0.1-5.9,2.1-5.9,5.9C559.9,413.1,562.1,414.9,565.4,415.4z"/>
	<path fill="#441048" d="M543.4,372.5c0-3,0-6,0-9c0-1.6,0.7-3.1,2.2-2.3c5.1,2.7,11-4,15.8,1.7c0.9,1.1,1.6-0.4,2.4-0.8
		c6.4-3.8,12.7-0.8,13.3,6.6c0.3,4.3,0,8.6,0.1,13c0.1,3-1.9,2.3-3.7,2.5c-2.1,0.2-3.1-0.4-3-2.7c0.1-3.5,0-7,0-10.5
		c0-2.5-1-4.4-3.7-4.3c-2.3,0.1-3.4,1.9-3.4,4.2c0,3.3-0.2,6.7,0,10c0.2,2.6-0.8,3.4-3.4,3.5c-2.9,0-3.3-1.3-3.2-3.7
		c0.1-3.3,0.1-6.6,0-10c0-2.3-1.1-4-3.5-4c-2.4,0-3.4,1.8-3.5,4.1c0,3.2-0.1,6.3,0,9.5c0,2.2,0.4,4-3.1,4.1
		c-3.7,0.1-3.5-1.8-3.4-4.3C543.5,377.4,543.4,374.9,543.4,372.5z"/>
	<path fill="#3F0943" d="M477.4,366.4c0-4.6,0.1-9.3-0.1-13.9c-0.1-2.7,0.9-3.5,3.4-3.3c3.1,0.2,6.3-0.1,9.5,0.1
		c6.9,0.5,11.2,5,11.2,11.6c0,6.7-4.2,11.8-11,11.5c-6-0.2-6.5,2.5-5.9,7c0.4,3.1,0.2,5.4-4.2,4.9c-2.6-0.3-3-1.2-2.9-3.3
		C477.5,376,477.4,371.2,477.4,366.4z M484.4,360.8c0.6,2.2-1.5,5.7,3.4,5.4c3.6-0.2,6.4-1.3,6.5-5.2c0.1-4.3-3.2-5.2-6.8-5.4
		C482.8,355.4,485.1,358.9,484.4,360.8z"/>
	<path fill="#430E47" d="M550.9,410c0,2.7-0.2,5.3,0.1,8c0.3,2.8-1.3,4.1-3.4,3.1c-3-1.5-5.3-0.5-8.2,0.3c-4.6,1.3-9.6-1.5-12-6
		c-2.4-4.4-1.6-10.2,1.9-13.9c3.4-3.7,8.4-4.8,12.7-2.7c0.7,0.3,1.9,1.4,2,1.3c2-2.2,5-3.2,6.5-0.7c1.2,1.9,0.4,5.1,0.4,7.8
		C550.9,408,550.9,409,550.9,410z M544.5,409.3c-0.3-3.5-2.3-5.7-5.7-5.7c-3.6,0-5.9,2.2-5.8,6c0.1,3.8,2.4,5.9,6.1,5.7
		C542.6,415.1,544.3,412.8,544.5,409.3z"/>
	<path fill="#400B44" d="M595.2,374.7c3.4,4.7,6.8,5.1,9.9,2.9c3-2.1,4,0.2,5.1,1.7c1.9,2.3-1,2.7-2,3.4c-5,3.2-12.3,2.4-16.1-1.6
		c-3.8-3.9-4.4-10.6-1.3-15.3c3.1-4.7,8.8-6.6,14-4.8c2.8,1,4.9,2.8,6.2,5.4c3.1,5.9,1.7,8.3-4.8,8.2
		C603,374.6,599.7,374.7,595.2,374.7z M595.7,369.9c2.1,0.1,3.7,0.4,5.3,0.2c1.5-0.2,4.2,0.9,4.2-1c0-2.4-2.6-3.1-4.9-3
		C598.4,366.3,596.8,367.2,595.7,369.9z"/>
	<path fill="#3F0943" d="M524.5,375.3c2.8,4.2,6.3,4.4,9.4,2.3c2.9-2.1,3.9,0,5.1,1.5c1.8,2.3-0.8,2.8-2,3.5
		c-5,3.2-12.1,2.5-16.1-1.6c-4-4.2-4.5-10.6-1.1-15.6c3-4.5,9-6.2,14.2-4.2c2.4,1,4.3,2.5,5.5,4.8c1.3,2.4,2.6,5.2,1.4,7.6
		c-1.2,2.3-4.2,0.9-6.4,1.1C531.4,374.9,528.2,374.3,524.5,375.3z M524.3,369.7c3.7,0,6.8,0,10.2,0
		C530.9,364.9,528.3,364.9,524.3,369.7z"/>
	<path fill="#400B44" d="M611.5,411.8c3.3,4.4,6.6,5.2,9.8,2.9c3.1-2.2,4.4,0.1,5.4,1.7c1.4,2.4-1.4,2.9-2.7,3.6
		c-4.5,2.7-11.2,2-14.9-1.3c-3.7-3.3-4.9-8.8-3-13.7c1.9-4.9,6.4-7.8,11.7-7.6c4.1,0.2,7.3,2.1,9.4,5.6c1.4,2.3,2.8,5,1.7,7.5
		c-1.2,2.7-4.2,1-6.3,1.2C619.1,412,615.8,411.8,611.5,411.8z M622.1,406.9c-3.6-5.1-7-5.1-9.8,0
		C615.5,406.9,618.6,406.9,622.1,406.9z"/>
	<path fill="#3E0942" d="M507.4,411.8c2.6,4.8,6.1,5.1,9.4,2.8c2.9-2,3.9,0.1,5.1,1.6c1.7,2.3-0.9,2.8-2,3.5c-4.6,3-11.5,2.4-15.4-1
		c-3.8-3.3-5-8.8-3.1-13.7c1.9-4.9,6.4-7.8,11.7-7.6c4.4,0.2,7.6,2.3,9.6,6.1c3.2,6.1,2,8.2-4.8,8.2
		C514.6,411.8,511.3,411.8,507.4,411.8z M507.4,406.8c3.5,0,6.7,0,10,0C514,401.8,511,401.8,507.4,406.8z"/>
	<path fill="#420E46" d="M477.4,404c0-4.3,0.2-8.7-0.1-13c-0.2-3,0.6-4,3.8-4c3.1,0,3.5,1.2,3.5,3.8c-0.1,6.7,0.1,13.3-0.1,20
		c-0.1,2.8,0.8,3.9,3.6,3.6c2.3-0.2,4.7,0.1,7-0.1c2.6-0.1,4.3-0.1,4.3,3.5c0,3.8-2.2,3.3-4.5,3.3c-4.7,0-9.3-0.2-14,0.1
		c-3,0.2-3.7-1-3.6-3.7C477.5,413,477.4,408.5,477.4,404z"/>
	<path fill="#441048" d="M603.1,405.9c0,1.8,0.1,3.7,0,5.5c-0.4,6.3-4.6,10.2-11.1,10.3c-6.5,0.1-10.9-3.7-11.3-10.1
		c-0.2-3.3,0.1-6.7-0.1-10c-0.1-2.5,0.4-3.5,3.2-3.6c3-0.1,3.7,1.1,3.5,3.8c-0.2,3-0.1,6,0,9c0.1,2.7,1.4,4.5,4.2,4.6
		c3,0.1,4.8-1.5,4.9-4.4c0.2-3.1,0.3-6.3,0.1-9.5c-0.2-2.7,0.8-3.4,3.3-3.4c2.5,0,3.7,0.6,3.4,3.3
		C602.9,402.8,603.1,404.4,603.1,405.9z"/>
	<path fill="#48154C" d="M614.5,372.8c0-2.5,0-5,0-7.5c0-0.7,0-1.3,0-2c-0.1-1.8,1.5-2.9,2.4-2.1c3.8,3.5,8.7-3.2,11.7,1.4
		c0.8,1.2,1.6,4.8-2.7,4.6c-3.3-0.1-4.6,2.2-4.7,5.3c-0.1,2.5-0.1,5,0,7.5c0.1,2.4,0.4,4.4-3.4,4.3c-3.9-0.1-3.3-2.2-3.3-4.5
		C614.6,377.4,614.5,375.1,614.5,372.8z"/>
	<path fill="#451249" d="M503.3,372.4c0-2.6,0.3-5.3-0.1-7.9c-0.5-3.7,2.4-4.4,4.1-3.2c2.7,1.9,4.3,0.4,6.5-0.2
		c1.6-0.5,3.7-0.9,3.5,1.8c-0.1,1.5,1.6,4.3-2.1,4.3c-4.2,0-5.2,2.7-5.1,6.3c0.1,2.1-0.1,4.3,0,6.5c0.1,2.5,0.2,4.3-3.4,4.3
		c-3.9,0.1-3.3-2.1-3.3-4.4C503.3,377.4,503.3,374.9,503.3,372.4z"/>
	<path fill="#3A033E" d="M586.4,372.7c0,2.5-0.1,5,0,7.5c0.1,2.5-0.1,3.9-3.3,4c-3.6,0.1-3.1-1.9-3.1-4.1c0-5.3,0.1-10.6,0-15.9
		c-0.1-2.4,0.6-3.1,3-3.1c2.5,0,3.7,0.4,3.4,3.2C586.2,367.1,586.4,369.9,586.4,372.7z"/>
	<path fill="#430E47" d="M583.5,358.3c-2.5-0.3-4.1-1.6-4.1-4.1c0-2.5,1.6-4,4.1-4c2.3,0,3.7,1.4,3.9,3.7
		C587.5,356.5,585.8,357.8,583.5,358.3z"/>
	<path fill="#3A033E" d="M518.1,223.2c0.1-0.4,0.3-0.9,0.8-0.6c0.1,0.1-0.2,0.7-0.3,1.1C518.5,223.5,518.3,223.4,518.1,223.2z"/>
	<path fill="#3E0842" d="M580.2,191.2c0.1-0.4,0.2-0.9,0.8-0.6c-0.1,0.4-0.3,0.7-0.4,1.1C580.4,191.5,580.3,191.3,580.2,191.2z"/>
	<path fill="#F8F7F8" d="M587.9,264c0.7,3.3-0.9,5.5-3.5,7.1c-1,0.6-1.9,1.4-2.8,2.1c-11.1,7.8-15.9,6-19.6-7
		c-0.5-1.7,0.3-2.1,1.2-2.7c2.9-1.9,6-3.6,8.8-5.6c5.3-3.7,9.8-1.7,14.5,1.3C588.7,260.5,587.3,262.4,587.9,264z"/>
	<path fill="#F7F5F7" d="M572.3,285.8c4.8-1.8,8.9-4.2,12.8-7.1c2.5-1.9,5.8-2.5,8.3-0.4c2.4,2,3.6,5,2.4,8.6
		c-1.5,4.1-3.4,7.8-7.3,10.6c-0.4-3.1-0.8-5.9-1.2-9c-3.5,1.9-6.6,5.4-10.3,4.4C574.9,292.3,573.9,288.4,572.3,285.8z"/>
	<path fill="#F8F6F8" d="M599.2,256.2c2.8,6.5,3.4,13.1,0.9,19.9C591.6,269.8,589.5,258.9,599.2,256.2z"/>
	<path fill="#F8F6F8" d="M565.4,415.4c-3.4-0.5-5.5-2.4-5.5-5.9c0-3.8,2.4-6.1,5.9-5.9c3.6,0.1,5.8,2.5,5.5,6.3
		C571.2,413.4,568.9,415.2,565.4,415.4z"/>
	<path fill="#ECE7ED" d="M484.4,360.8c0.7-1.9-1.6-5.4,3-5.1c3.6,0.2,6.9,1,6.8,5.4c-0.1,3.9-2.9,5-6.5,5.2
		C482.9,366.5,485,363,484.4,360.8z"/>
	<path fill="#E6DFE6" d="M595.7,369.9c1.1-2.7,2.6-3.6,4.6-3.7c2.3-0.2,4.9,0.6,4.9,3c0,1.9-2.7,0.8-4.2,1
		C599.4,370.3,597.8,370,595.7,369.9z"/>
	<path fill="#E2DAE2" d="M524.3,369.7c4.1-4.8,6.6-4.8,10.2,0C531.1,369.7,528,369.7,524.3,369.7z"/>
	<path fill="#E2DAE2" d="M622.1,406.9c-3.5,0-6.6,0-9.8,0C615.2,401.9,618.5,401.8,622.1,406.9z"/>
	<path fill="#E2DAE2" d="M507.4,406.8c3.7-5,6.6-5,10,0C514,406.8,510.9,406.8,507.4,406.8z"/>
</g>
<g>
	<path fill="#0132A0" d="M338.4,366.8c25.3,0,50.7,0,76,0c2.1,0,2.8,0.4,2.8,2.7c-0.1,15.6-0.1,31.3,0,46.9c0,2-0.5,2.6-2.5,2.6
		c-50.9-0.1-101.7-0.1-152.6,0c-2.2,0-2.5-0.7-2.5-2.6c0.1-15.6,0.1-31.1,0-46.7c0-2.2,0.4-2.9,2.8-2.9
		C287.7,366.8,313,366.8,338.4,366.8z M386.7,391.8c0.2,0,0.4,0.1,0.6,0.1c0,4.3,0.1,8.6,0,12.9c-0.1,2.1,0.7,2.9,2.7,2.7
		c0.8-0.1,1.6-0.1,2.4,0c1.5,0.1,1.9-0.7,1.9-2c-0.1-8.6-0.1-17.1-0.2-25.7c0-0.6,0.1-1.2-0.5-1.7c-2-1.3-7,0.3-7.9,2.5
		c-2,4.9-4,9.9-6.1,15.1c-1.9-4.5-3.6-8.7-5.4-12.9c-2.4-5.7-1-4.7-7.6-4.9c-2-0.1-2.5,0.7-2.5,2.6c0.1,7.9,0.1,15.7,0.1,23.6
		c0,3.7,0.1,3.7,3.9,3.6c2.3-0.1,3.2-0.7,3-3.2c-0.2-4.3-0.1-8.6-0.1-12.9c1.8,3,3.4,6,4.4,9.1c0.9,2.7,2.9,1.8,4.7,2
		c1.6,0.2,2.5-0.4,3.1-2C384.2,397.6,385.5,394.7,386.7,391.8z M336.4,377.9c-2.6,0-5.3,0.2-7.9,0c-2.6-0.2-3.3,0.7-3.3,3.2
		c0,2.6,0.8,3.5,3.3,3.2c0.7-0.1,1.4,0.1,2.1,0c1.8-0.2,2.4,0.6,2.4,2.4c-0.1,6.2,0.1,12.4-0.1,18.6c0,2.3,1.1,2.7,2.9,2.5
		c1.7-0.2,4.1,0.8,4-2.5c-0.1-5.2,0-10.3-0.1-15.5c0-5.2,0-5.3,5.2-5.4c2.9-0.1,2-2,2.1-3.5c0.1-1.5,0.2-3-2.2-2.9
		C342.1,378,339.3,377.9,336.4,377.9z M299.8,384.4C299.8,384.4,299.8,384.3,299.8,384.4c5.1-0.1,10.1-0.2,15.2-0.1
		c2.4,0,2.7-1.3,2.7-3.2c0-1.8-0.2-3.3-2.7-3.2c-10,0.1-20.1,0.1-30.1,0.1c-2.5,0-2.7,1.4-2.8,3.4c0,2,0.5,3.1,2.8,3.1
		C289.9,384.3,294.9,384.4,299.8,384.4z M351.8,392.8c0,0,0.1,0,0.1,0c0,4.2,0.1,8.4,0,12.6c-0.1,1.8,0.7,2.3,2.3,2.2
		c0.7-0.1,1.4-0.1,2.1,0c2.1,0.3,2.6-0.7,2.6-2.7c-0.1-7.5,0-15-0.1-22.5c0-4.9,0.8-4.3-4.5-4.4c-0.1,0-0.2,0-0.3,0
		c-1.6-0.2-2.1,0.4-2.1,2.1C351.8,384.2,351.8,388.5,351.8,392.8z M310,396C310,396,310,396,310,396c1.7-0.1,3.3-0.1,5,0
		c2.6,0.2,2.7-1.5,2.7-3.4c0-2.1-0.7-3.1-2.9-3c-3,0.1-6,0.2-8.9,0c-2.1-0.1-2.7,0.6-2.6,2.7c0.2,4.3-0.5,3.7,3.8,3.8
		C308.1,396,309.1,396,310,396z M310.3,401.3C310.3,401.3,310.3,401.3,310.3,401.3c-0.9,0-1.7,0-2.6,0c-4.5,0-4.5,0-4.3,4.5
		c0,1.6,0.6,1.9,2,1.9c3-0.1,6-0.2,8.9,0c2.4,0.1,3.5-0.6,3.5-3.3c0-2.7-1.2-3.4-3.5-3.2C312.9,401.4,311.6,401.3,310.3,401.3z
		 M289.6,389.6C289.6,389.7,289.6,389.7,289.6,389.6c-1.7,0-3.3,0.1-5,0c-2.4-0.1-2.6,1.3-2.6,3.2c0,1.9,0.2,3.3,2.6,3.3
		c2.9-0.1,5.8-0.2,8.6,0c2.6,0.2,3.3-0.6,3.1-3.1c-0.2-3.4-0.1-3.4-3.4-3.4C291.9,389.6,290.8,389.6,289.6,389.6z M289.5,407.8
		C289.5,407.7,289.5,407.7,289.5,407.8c0.8,0,1.6,0,2.4,0c4.9,0,4.8,0,4.5-4.8c-0.1-1-0.3-1.6-1.5-1.6c-3.6,0.1-7.1,0.1-10.7,0.1
		c-1,0-1.7,0.3-2,1.3c-1,3.4,0.2,5,3.6,5C287.1,407.8,288.3,407.8,289.5,407.8z"/>
	<path fill="#149CFC" d="M356.9,196.6c2.2,4.7,4.4,9.5,6.2,14.4c-0.4,0.9-1.2,1.2-2,1.5c-3.4,1.3-6.9,2.5-10.3,3.8
		c-11.9,4.3-23.7,8.7-35.6,12.8c-3.6,1.3-7,3.2-10.9,3.4c2.6-7,5.6-13.9,8.8-20.6c1,1.4,2.1,0.3,3-0.1c11.7-4.1,23.3-8.2,34.9-12.5
		C353,198.6,355.2,198.2,356.9,196.6z"/>
	<path fill="#1D1859" d="M337.3,319.8c-0.5-0.2-1-0.4-1.4-0.6c-17.5-11-35-22.1-52.5-33.1c-0.4-0.3-1-0.4-1.1-1c0,0,0.2,0,0.2,0
		l0.2-0.1c11.2,0,22.3,0.1,33.5,0.1c1.8,3.6,4,6.9,6.3,10.2c1.7,3.2,3.6,6.3,5.7,9.2c1.5,2.4,3,4.9,4.4,7.3
		C334.1,314.6,336.2,316.9,337.3,319.8z"/>
	<path fill="#1D1859" d="M394.3,285.2c-18.3,11.5-36.6,23.1-55,34.6c-0.4-1.2,1-1.7,1.1-2.8c1.8-2.7,3.9-5.2,4.8-8.3
		c1.8-1.3,2.6-3.4,3.6-5.3c4-6,7.9-12.2,11.5-18.5c2.1,0,4.2,0,6.3,0.1C375.8,285.1,385.1,285.1,394.3,285.2z"/>
	<path fill="#2AD4FB" d="M394.3,285.2c-9.2-0.1-18.4-0.1-27.6-0.2c-2.1,0-4.2,0-6.3-0.1c-0.1-0.3-0.2-0.6-0.3-0.9
		c-1.3-3.5-2.6-7-3.9-10.5c6.7-3,13.8-5,20.5-7.7c2.8-1.1,5.9-1.5,8.4-3.4c3.1,7.1,6.2,14.1,9.3,21.2
		C394.6,284.1,394.9,284.7,394.3,285.2z"/>
	<path fill="#108EFD" d="M356.9,196.6c-1.6,1.5-3.8,2-5.8,2.7c-11.6,4.3-23.3,8.4-34.9,12.5c-0.9,0.3-2,1.4-3,0.1
		c3-7.1,6-14.2,9-21.4c0.4-1,1.1-1.1,2.1-1.1c9.4,0,18.8,0,28.3,0c1.1,0,1.8,0.3,2.2,1.4C355.3,192.8,356.1,194.7,356.9,196.6z"/>
	<path fill="#17A2FC" d="M304.2,232.6c3.9-0.2,7.3-2.2,10.9-3.4c11.9-4.2,23.7-8.5,35.6-12.8c3.4-1.2,6.9-2.5,10.3-3.8
		c0.8-0.3,1.7-0.6,2-1.5c1.3,2.3,2.4,4.8,3.2,7.3c-0.6,1.2-1.9,1.6-3,2c-4.1,1.6-8.3,3.1-12.5,4.4c-3.9,1.2-7.6,3.5-11.9,3.6
		c-0.3-0.1-0.6-1.1-1.1-0.2c-0.4,0.7-0.8,1.5-1.1,2.3c-1.2-0.1-2.4,0.2-3.6,0.6c-7.9,2.9-15.8,5.9-23.8,8.6
		c-3.1,1.1-6.1,2.6-9.4,2.9C301.1,239.1,302.5,235.8,304.2,232.6z"/>
	<path fill="#25CAFB" d="M385.1,262.4c-2.5,1.9-5.6,2.3-8.4,3.4c-6.8,2.7-13.9,4.7-20.5,7.7c-1-0.5-2-0.3-3.1-0.3
		c-7.5,0-14.9,0-22.4,0c-0.9,0-1.8-0.1-3-0.1c0.5-1.1,0.8-1.9,1.2-2.7c2.7,0.3,4.9-1.2,7.2-2c9.5-3.4,18.9-7,28.5-10.3
		c5.4-1.9,10.7-4.2,16.3-5.6C382.5,255.7,383.9,259,385.1,262.4z"/>
	<path fill="#22C1FB" d="M380.9,252.5c-5.6,1.3-10.8,3.7-16.3,5.6c-9.5,3.3-19,6.9-28.5,10.3c-2.3,0.8-4.5,2.3-7.2,2
		c1.2-3.8,2.6-7.4,4.2-11c8.7-2.4,17.1-6,25.6-8.9c6.2-2.1,12.1-4.8,18.5-6.3C378.8,246.8,379.8,249.7,380.9,252.5z"/>
	<path fill="#22C1FB" d="M282.8,285l-0.2,0.1c0,0-0.2,0-0.2,0c-0.7-0.2-0.5-0.7-0.3-1.2c1.3-2.8,2.5-5.6,3.8-8.4
		c0.8,1.1,1.7,0.6,2.6,0.2c7.4-2.7,14.9-5.5,22.4-8c4.4-1.5,8.6-3.9,13.4-4.2c-1.5,4-2.7,8.2-4.7,12.1c-1,0-1.9,0-2.8,0.4
		c-5.1,1.9-10.1,3.8-15.2,5.5c-4,1.4-7.8,3.8-12.4,3.1C287,284.3,284.8,284,282.8,285z"/>
	<path fill="#20B9FC" d="M324.1,263.5c-4.8,0.2-9,2.7-13.4,4.2c-7.5,2.5-14.9,5.3-22.4,8c-0.9,0.3-1.8,0.8-2.6-0.2
		c1.3-3.8,2.9-7.4,4.7-10.9c1,0.1,1.9-0.1,2.8-0.4c9.4-3.4,18.8-6.9,28.2-10.2c2.3-0.8,4.4-2.1,7-1.8
		C327.3,256,325.8,259.8,324.1,263.5z"/>
	<path fill="#1DB1FC" d="M328.5,252.1c-2.6-0.3-4.7,1-7,1.8c-9.4,3.3-18.8,6.8-28.2,10.2c-0.9,0.3-1.8,0.5-2.8,0.4
		c1.5-4.2,3.3-8.2,5.3-12.2c0.7,1.1,1.6,0.7,2.6,0.3c5.5-2,11-4,16.5-5.9c6.1-2.1,12-4.8,18.2-6.3c-1.4,3.7-2.8,7.4-4.2,11
		C328.7,251.7,328.6,251.9,328.5,252.1L328.5,252.1z"/>
	<path fill="#20B9FC" d="M377.3,244.1c-6.4,1.6-12.3,4.3-18.5,6.3c-8.6,2.9-16.9,6.5-25.6,8.9c0.6-1.8,1.4-3.6,1.9-5.4
		c0.4-1.5,1.2-2.1,2.8-2c3.2,0.1,6.4,0,9.9,0c-0.9-2.4-1.6-4.6-2.4-6.8c1-0.3,2-0.4,3-0.8c8.4-3,16.8-6.1,25.2-9.2
		C374.9,238.1,376.2,241,377.3,244.1z"/>
	<path fill="#1AA9FC" d="M333,240.5c-6.3,1.5-12.2,4.2-18.2,6.3c-5.5,1.9-11,3.9-16.5,5.9c-0.9,0.3-1.8,0.8-2.6-0.3
		c1-3.4,2.6-6.6,4.2-9.8c3.4-0.2,6.3-1.8,9.4-2.9c8-2.7,15.9-5.7,23.8-8.6c1.2-0.4,2.3-0.7,3.6-0.6
		C335.7,233.9,334.5,237.2,333,240.5z"/>
	<path fill="#1D1859" d="M320.4,343.4c0-3.1,0.1-6.3,0-9.4c-0.1-1.5,0.5-1.9,1.9-1.9c2.8,0.1,5.6,0,8.4,0.1c3.2,0.1,5.7,1.9,6.6,4.7
		c1,3,0.3,6-2.4,7.9c-1.1,0.9-1.1,1.4-0.5,2.5c1.1,2.1,2.1,4.2,3.2,6.3c0.6,1.1,0.3,1.5-1,1.6c-2.6,0.2-4.6-0.1-5.4-3.1
		c-0.4-1.5-1.4-2.8-1.9-4.3c-0.6-1.7-1.9-1.6-3.2-1.4c-1.6,0.2-0.8,1.5-0.9,2.3c-0.1,1.1,0,2.3,0,3.4c0,3-0.9,3.7-3.9,3
		c-1.2-0.3-1-1-1-1.8C320.4,350.1,320.4,346.8,320.4,343.4z M327.9,336.5c-1.6-0.3-3,0-2.7,2.6c0.2,1.7-0.4,3.4,2.5,3.2
		c3.6-0.3,4.9-0.8,4.9-3C332.6,337.3,331.4,336.5,327.9,336.5z"/>
	<path fill="#1DB1FC" d="M373.5,235.2c-8.4,3.1-16.8,6.1-25.2,9.2c-1,0.4-2,0.5-3,0.8c-1.1-2.8-2.1-5.6-3.2-8.4
		c3.8-0.9,7.4-2.5,11.1-3.7c5.7-1.8,11.1-4.5,16.9-5.8C371.2,229.9,372.3,232.6,373.5,235.2z"/>
	<path fill="#221D5D" d="M349.5,343.6c0-3.1,0.1-6.3,0-9.4c0-1.4,0.3-2,1.9-2c4,0.1,8,0.1,12.1,0c1.8-0.1,1.6,1.1,1.6,2.2
		c0,1.2,0.2,2.3-1.6,2.2c-2.4-0.1-4.9,0.1-7.3-0.1c-2-0.1-1.6,1.2-1.5,2.2c0.1,1.1-0.9,2.9,1.5,2.8c1.9-0.1,3.8,0.1,5.8,0
		c1.6-0.1,1.6,0.9,1.5,2c-0.1,1.1,0.4,2.4-1.5,2.3c-1.9-0.1-3.8,0.1-5.8,0c-2.4-0.1-1.4,1.7-1.5,2.7c-0.1,1.1-0.6,2.6,1.5,2.5
		c2.4-0.1,4.7,0.1,7.1-0.1c1.9-0.1,1.8,0.9,1.9,2.3c0.1,1.5-0.2,2.2-2,2.2c-3.9-0.1-7.9-0.1-11.8,0c-1.4,0-1.8-0.4-1.8-1.8
		C349.6,350.2,349.5,346.9,349.5,343.6z"/>
	<path fill="#221D5D" d="M301.7,343.8c0-3.3,0-6.6,0-10c0-1.2,0.3-1.7,1.6-1.7c4.1,0.1,8.2,0.1,12.3,0c1.9,0,1.6,1.1,1.6,2.2
		c0,1.2,0.1,2.2-1.7,2.1c-2.4-0.1-4.7,0.1-7.1-0.1c-2.1-0.1-1.8,1.2-1.7,2.3c0.1,1.1-0.8,2.8,1.6,2.7c1.7-0.1,3.3,0.1,5,0
		c1.6-0.1,2.4,0.3,2.3,2.1c-0.1,1.7-0.4,2.4-2.2,2.3c-1.6-0.1-3.3,0.1-5-0.1c-2.1-0.2-1.8,1.2-1.7,2.3c0.1,1.1-0.9,3,1.6,2.9
		c2.4-0.1,4.7,0.1,7.1-0.1c1.7-0.1,1.8,0.8,1.7,2.1c0,1.2,0.2,2.4-1.8,2.3c-4-0.1-8-0.1-12.1,0c-1.4,0-1.8-0.5-1.8-1.8
		C301.8,350.3,301.7,347.1,301.7,343.8z"/>
	<path fill="#1AA9FC" d="M370.1,227.3c-5.9,1.3-11.3,4-16.9,5.8c-3.7,1.2-7.2,2.8-11.1,3.7c-1.3-2.7-2.4-5.5-3.2-8.4
		c4.3-0.1,7.9-2.4,11.9-3.6c4.2-1.3,8.3-2.9,12.5-4.4c1.1-0.4,2.4-0.7,3-2C367.7,221.2,368.9,224.2,370.1,227.3z"/>
	<path fill="#221D5D" d="M290.4,355.5c-3.2-0.1-5.7-0.7-7.9-2.2c-0.6-0.4-2-0.9-0.9-1.9c1-0.9,1.2-3.4,3.4-2c1.8,1.1,3.7,2,5.9,1.7
		c1.5-0.2,2.8-0.7,2.9-2.4c0.2-1.9-1.2-2.4-2.6-2.6c-1.6-0.3-3.3-0.4-4.9-1c-3-1.1-4.3-3.1-4.4-6.1c0-3.1,1.6-5.5,4.4-6.4
		c3.6-1.2,7.1-0.7,10.4,1c0.8,0.4,1.8,0.9,0.7,1.9c-0.8,0.8-0.7,3.1-2.9,2c-1.6-0.8-3.2-1.3-5-1.2c-1.4,0.1-2.4,0.8-2.5,2.2
		c-0.1,1.4,0.8,2.1,2,2.4c1.3,0.3,2.6,0.5,3.8,0.8c4.4,1,6.3,3.2,6.1,7.1c-0.1,3.7-2.7,6.2-6.8,6.7
		C291.5,355.5,290.7,355.5,290.4,355.5z"/>
	<path fill="#221D5D" d="M384.2,350.8c-2.9-0.7-4.7,0.1-5.2,3.2c-0.2,1-4.4,1.8-5,1c-0.4-0.5,0-1,0.1-1.5c2.4-6.7,4.8-13.4,7.2-20.2
		c0.7-1.9,2.1-1.1,3.2-1.2c1.1-0.1,2.2-0.3,2.7,1.3c2.3,6.8,4.6,13.5,7,20.2c0.4,1.3,0.1,1.4-1.1,1.5c-2.2,0.1-4.1,0.1-4.5-2.9
		C388.2,349.5,385.7,351.3,384.2,350.8z M384,338.5c-0.6,1.7-0.9,2.8-1.2,3.8c-1.4,4.5-1.4,4.5,3.2,4.2c0.1,0,0.3-0.2,0.5-0.3
		C385.8,343.9,385,341.5,384,338.5z"/>
	<path fill="#1DB1FC" d="M340.4,317.1c-0.1,1-1.5,1.5-1.1,2.8c-0.7,0.7-1.3,0.8-2,0c-1.1-2.9-3.3-5.2-4.6-8c1.4-1.2,1.4-2.8,1.4-4.4
		c0-7.4,0-14.8,0-22.3c1.6,0,3.2,0,4.7,0c0,9.5,0,19,0,28.5C338.9,315,338.6,316.5,340.4,317.1z"/>
	<path fill="#1D1859" d="M340.7,343.8c0-3.3,0.1-6.6,0-10c-0.1-2.4,1.6-1.6,2.7-1.6c1.1-0.1,2.4-0.5,2.4,1.6
		c-0.1,6.6-0.1,13.1,0,19.7c0,2-1.2,1.7-2.4,1.7c-1.2-0.1-2.8,0.6-2.7-1.7C340.8,350.3,340.7,347.1,340.7,343.8z"/>
	<path fill="#C31030" d="M386.7,391.8c-1.2,2.9-2.5,5.8-3.5,8.8c-0.6,1.6-1.4,2.2-3.1,2c-1.8-0.2-3.8,0.7-4.7-2
		c-1.1-3.2-2.6-6.2-4.4-9.1c0,4.3-0.2,8.6,0.1,12.9c0.1,2.5-0.8,3.1-3,3.2c-3.7,0.1-3.8,0.1-3.9-3.6c0-7.9,0-15.7-0.1-23.6
		c0-1.9,0.5-2.7,2.5-2.6c6.6,0.2,5.1-0.8,7.6,4.9c1.8,4.2,3.5,8.4,5.4,12.9c2.1-5.2,4.1-10.2,6.1-15.1c0.9-2.2,5.9-3.8,7.9-2.5
		c0.6,0.4,0.5,1,0.5,1.7c0.1,8.6,0.1,17.1,0.2,25.7c0,1.4-0.4,2.2-1.9,2c-0.8-0.1-1.6,0-2.4,0c-2,0.2-2.8-0.6-2.7-2.7
		c0.1-4.3,0-8.6,0-12.9C387.1,391.8,386.9,391.8,386.7,391.8z"/>
	<path fill="#00B450" d="M336.4,377.9c2.9,0,5.8,0.1,8.6,0c2.4-0.1,2.3,1.4,2.2,2.9c-0.1,1.5,0.8,3.4-2.1,3.5
		c-5.2,0.1-5.2,0.2-5.2,5.4c0,5.2-0.1,10.3,0.1,15.5c0.1,3.3-2.3,2.4-4,2.5c-1.8,0.2-3-0.1-2.9-2.5c0.1-6.2,0-12.4,0.1-18.6
		c0-1.8-0.6-2.6-2.4-2.4c-0.7,0.1-1.4-0.1-2.1,0c-2.5,0.4-3.3-0.6-3.3-3.2c0-2.5,0.7-3.4,3.3-3.2
		C331.1,378.1,333.8,377.9,336.4,377.9z"/>
	<path fill="#DE012E" d="M299.8,384.4c-5,0-10-0.1-14.9,0c-2.3,0-2.8-1.1-2.8-3.1c0-2,0.2-3.4,2.8-3.4c10,0.1,20.1,0,30.1-0.1
		c2.4,0,2.6,1.4,2.7,3.2c0,1.9-0.3,3.2-2.7,3.2C310,384.2,304.9,384.3,299.8,384.4C299.8,384.3,299.8,384.4,299.8,384.4z"/>
	<path fill="#FDFDFD" d="M351.8,392.8c0-4.3,0.1-8.5,0-12.8c0-1.6,0.5-2.3,2.1-2.1c0.1,0,0.2,0,0.3,0c5.3,0.1,4.5-0.5,4.5,4.4
		c0.1,7.5,0,15,0.1,22.5c0,2-0.4,3-2.6,2.7c-0.7-0.1-1.4,0-2.1,0c-1.6,0.1-2.3-0.4-2.3-2.2c0.1-4.2,0-8.4,0-12.6
		C351.8,392.8,351.8,392.8,351.8,392.8z"/>
	<path fill="#DE012E" d="M310,396c-1,0-1.9,0-2.9,0c-4.3,0-3.6,0.5-3.8-3.8c-0.1-2,0.5-2.8,2.6-2.7c3,0.2,5.9,0.1,8.9,0
		c2.2-0.1,2.9,0.9,2.9,3c0,1.9-0.1,3.5-2.7,3.4C313.3,395.9,311.7,396,310,396C310,396,310,396,310,396z"/>
	<path fill="#DE012E" d="M310.3,401.3c1.3,0,2.6,0.1,3.9,0c2.4-0.2,3.5,0.5,3.5,3.2c0,2.6-1.1,3.4-3.5,3.3c-3-0.1-5.9-0.1-8.9,0
		c-1.4,0-2-0.3-2-1.9c-0.1-4.5-0.2-4.5,4.3-4.5C308.6,401.3,309.4,401.3,310.3,401.3C310.3,401.3,310.3,401.3,310.3,401.3z"/>
	<path fill="#DE012E" d="M289.6,389.6c1.1,0,2.3,0,3.4,0c3.3,0,3.1,0,3.4,3.4c0.2,2.5-0.6,3.4-3.1,3.1c-2.9-0.2-5.7-0.1-8.6,0
		c-2.4,0.1-2.6-1.4-2.6-3.3c0-1.9,0.2-3.3,2.6-3.2C286.3,389.7,288,389.7,289.6,389.6C289.6,389.7,289.6,389.7,289.6,389.6z"/>
	<path fill="#DE012E" d="M289.5,407.8c-1.2,0-2.4,0-3.7,0c-3.4,0-4.6-1.6-3.6-5c0.3-1,1-1.3,2-1.3c3.6,0,7.1,0,10.7-0.1
		c1.2,0,1.4,0.5,1.5,1.6c0.3,4.8,0.3,4.8-4.5,4.8C291.1,407.7,290.3,407.7,289.5,407.8C289.5,407.7,289.5,407.7,289.5,407.8z"/>
	<path fill="#25CAFB" d="M282.8,285c2-0.9,4.2-0.6,6.2-0.3c4.6,0.7,8.4-1.7,12.4-3.1c5.1-1.8,10.2-3.6,15.2-5.5
		c0.9-0.4,1.9-0.3,2.8-0.4c-1,3-2,6-3,9.1c-0.1,0.1-0.1,0.2-0.1,0.3l-0.1,0.1C305.1,285,293.9,285,282.8,285z"/>
	<path fill="#22C1FB" d="M334.1,285.1c0,7.4,0,14.8,0,22.3c0,1.6,0,3.3-1.4,4.4c-1.5-2.4-3-4.9-4.4-7.3c1.6-0.3,1.1-1.5,1.1-2.5
		c0-5.6,0-11.3,0-16.9C331,285.1,332.6,285.1,334.1,285.1z"/>
	<path fill="#25CAFB" d="M329.4,285.1c0,5.6,0,11.3,0,16.9c0,1,0.4,2.2-1.1,2.5c-2.1-2.9-4.1-6-5.7-9.2c0-3.4,0-6.8,0.1-10.2
		C324.9,285.1,327.2,285.1,329.4,285.1z"/>
	<path fill="#2AD4FB" d="M322.6,285.1c0,3.4,0,6.8-0.1,10.2c-2.3-3.3-4.5-6.6-6.3-10.2c0,0,0.1-0.1,0.1-0.1
		C318.4,285,320.5,285.1,322.6,285.1z"/>
	<path fill="#17A2FC" d="M340.4,317.1c-1.8-0.5-1.6-2.1-1.6-3.4c0-9.5,0-19,0-28.5c0.4-0.1,0.7-0.1,1.1-0.1c1.4,0,2.8,0.1,4.2,0.1
		c0,6.5,0,13,0,19.5c0,1.5,0,2.9,1.2,4.1C344.3,311.9,342.2,314.4,340.4,317.1z"/>
	<path fill="#108EFD" d="M344.1,285.1c-1.4,0-2.8-0.1-4.2-0.1c0,0,0-0.2,0-0.2c5.8,0,11.7-0.1,17.5-0.2c0.9,0,2,0.4,2.7-0.6
		c0.1,0.3,0.2,0.6,0.3,0.9c-3.6,6.3-7.5,12.4-11.5,18.5c-1.4-0.2-1.1-1.4-1.1-2.3c0-4.2,0-8.3,0-12.5
		C347.8,285,347.8,285,344.1,285.1z"/>
	<path fill="#149CFC" d="M344.1,285.1c3.7-0.1,3.7-0.1,3.7,3.6c0,4.2,0,8.3,0,12.5c0,0.9-0.4,2,1.1,2.3c-1,1.9-1.8,3.9-3.6,5.3
		c-1.1-1.2-1.2-2.6-1.2-4.1C344.1,298.1,344.1,291.6,344.1,285.1z"/>
	<path fill="#1D1859" d="M360.1,284c-0.7,1-1.8,0.6-2.7,0.6c-5.8,0.1-11.7,0.1-17.5,0.2c-7.8,0-15.7-0.1-23.5-0.1c1-3,2-6,3-9.1
		c2.1-3.8,3.2-8,4.7-12.1c1.7-3.7,3.2-7.5,4.4-11.4c0,0,0-0.1,0-0.1c0.1-0.2,0.2-0.4,0.4-0.6c1.4-3.7,2.8-7.4,4.2-11
		c1.5-3.2,2.7-6.5,3.7-10c0.4-0.8,0.7-1.5,1.1-2.3c0.5-0.9,0.7,0.1,1.1,0.2c0.8,2.9,1.9,5.7,3.2,8.4c1.1,2.8,2.1,5.6,3.2,8.4
		c0.8,2.2,1.6,4.4,2.4,6.8c-3.5,0-6.7,0.1-9.9,0c-1.6-0.1-2.4,0.5-2.8,2c-0.5,1.8-1.3,3.6-1.9,5.4c-1.6,3.6-3,7.3-4.2,11
		c-0.3,0.8-0.7,1.6-1.2,2.7c1.2,0.1,2.1,0.1,3,0.1c7.5,0,14.9,0,22.4,0c1,0,2.1-0.2,3.1,0.3C357.5,277,358.8,280.5,360.1,284z"/>
	<path fill="#20B9FC" d="M328.8,251.5c-0.1,0.2-0.2,0.4-0.4,0.6C328.6,251.9,328.7,251.7,328.8,251.5z"/>
	<path fill="#149CFC" d="M316.4,284.7c7.8,0,15.7,0.1,23.5,0.1c0,0,0,0.2,0,0.2c-0.4,0-0.7,0.1-1.1,0.1c-1.6,0-3.2,0-4.7,0
		c-1.6,0-3.1,0-4.7,0c-2.3,0-4.5,0-6.8,0c-2.1,0-4.2-0.1-6.3-0.1C316.3,284.9,316.4,284.8,316.4,284.7z"/>
</g>
</svg>
