<svg xmlns="http://www.w3.org/2000/svg" width="900" height="870"><rect width="900" height="870" x="0" y="0" fill="#FFFFFF" id="backgorund"/><g id="viz" transform="translate(50,50)"><g id="lines" fill="none"><path d="M0,267.0967741935484L600,528.6075949367089" stroke="rgb(92, 252, 117)" stroke-width="2" stroke-opacity="0.5"/><path d="M0,46.45161290322581L600,309.873417721519" stroke="rgb(61, 124, 247)" stroke-width="2" stroke-opacity="0.5"/><path d="M0,383.22580645161287L600,565.0632911392405" stroke="rgb(58, 239, 154)" stroke-width="2" stroke-opacity="0.5"/><path d="M0,34.83870967741935L600,291.6455696202532" stroke="rgb(237, 82, 21)" stroke-width="2" stroke-opacity="0.5"/><path d="M0,185.80645161290323L600,382.7848101265822" stroke="rgb(113, 254, 101)" stroke-width="2" stroke-opacity="0.5"/><path d="M0,383.22580645161287L600,528.6075949367089" stroke="rgb(61, 41, 111)" stroke-width="2" stroke-opacity="0.5"/><path d="M0,58.064516129032256L600,264.30379746835445" stroke="rgb(39, 216, 194)" stroke-width="2" stroke-opacity="0.5"/><path d="M0,58.064516129032256L600,264.30379746835445" stroke="rgb(254, 185, 39)" stroke-width="2" stroke-opacity="0.5"/><path d="M0,81.29032258064515L600,282.53164556962025" stroke="rgb(251, 103, 25)" stroke-width="2" stroke-opacity="0.5"/><path d="M0,0L600,191.3924050632911" stroke="rgb(70, 103, 236)" stroke-width="2" stroke-opacity="0.5"/><path d="M0,58.064516129032256L600,227.8481012658228" stroke="rgb(52, 145, 248)" stroke-width="2" stroke-opacity="0.5"/><path d="M0,348.38709677419354L600,455.6962025316456" stroke="rgb(255, 166, 35)" stroke-width="2" stroke-opacity="0.5"/><path d="M0,92.90322580645162L600,246.0759493670886" stroke="rgb(73, 61, 171)" stroke-width="2" stroke-opacity="0.5"/><path d="M0,81.29032258064515L600,227.8481012658228" stroke="rgb(180, 29, 7)" stroke-width="2" stroke-opacity="0.5"/><path d="M0,708.3870967741935L600,720" stroke="rgb(137, 252, 87)" stroke-width="2" stroke-opacity="0.5"/><path d="M0,243.87096774193546L600,355.44303797468353" stroke="rgb(144, 12, 0)" stroke-width="2" stroke-opacity="0.5"/><path d="M0,23.225806451612904L600,173.16455696202533" stroke="rgb(46, 229, 174)" stroke-width="2" stroke-opacity="0.5"/><path d="M0,348.38709677419354L600,419.24050632911394" stroke="rgb(184, 241, 64)" stroke-width="2" stroke-opacity="0.5"/><path d="M0,104.51612903225808L600,218.73417721518987" stroke="rgb(242, 203, 44)" stroke-width="2" stroke-opacity="0.5"/><path d="M0,371.61290322580646L600,419.24050632911394" stroke="rgb(206, 231, 56)" stroke-width="2" stroke-opacity="0.5"/><path d="M0,209.03225806451616L600,264.30379746835445" stroke="rgb(37, 201, 213)" stroke-width="2" stroke-opacity="0.5"/><path d="M0,418.0645161290323L600,419.24050632911394" stroke="rgb(44, 165, 241)" stroke-width="2" stroke-opacity="0.5"/><path d="M0,150.96774193548387L600,209.62025316455697" stroke="rgb(39, 184, 229)" stroke-width="2" stroke-opacity="0.5"/><path d="M0,627.0967741935484L600,574.1772151898734" stroke="rgb(73, 247, 135)" stroke-width="2" stroke-opacity="0.5"/><path d="M0,197.41935483870967L600,200.50632911392404" stroke="rgb(255, 125, 29)" stroke-width="2" stroke-opacity="0.5"/><path d="M0,104.51612903225808L600,127.59493670886076" stroke="rgb(74, 81, 212)" stroke-width="2" stroke-opacity="0.5"/><path d="M0,406.45161290322585L600,355.44303797468353" stroke="rgb(200, 44, 12)" stroke-width="2" stroke-opacity="0.5"/><path d="M0,185.80645161290323L600,173.16455696202533" stroke="rgb(149, 12, 0)" stroke-width="2" stroke-opacity="0.5"/><path d="M0,394.83870967741933L600,328.1012658227848" stroke="rgb(35, 23, 27)" stroke-width="2" stroke-opacity="0.5"/><path d="M0,162.5806451612903L600,127.59493670886076" stroke="rgb(162, 18, 2)" stroke-width="2" stroke-opacity="0.5"/><path d="M0,499.35483870967744L600,382.7848101265822" stroke="rgb(226, 218, 49)" stroke-width="2" stroke-opacity="0.5"/><path d="M0,720L600,555.9493670886076" stroke="rgb(160, 248, 75)" stroke-width="2" stroke-opacity="0.5"/><path d="M0,69.6774193548387L600,0" stroke="rgb(255, 146, 32)" stroke-width="2" stroke-opacity="0.5"/><path d="M0,313.5483870967742L600,182.27848101265823" stroke="rgb(220, 62, 17)" stroke-width="2" stroke-opacity="0.5"/></g><g><g transform="translate(0,0)" fill="none" font-size="10" font-family="sans-serif" text-anchor="end"><path class="domain" stroke="currentColor" d="M-6,0.5H0.5V720.5H-6"/><g class="tick" opacity="1" transform="translate(0,46.95161290322581)"><line stroke="currentColor" x2="-6"/><text fill="currentColor" x="-9" dy="0.32em">40</text></g><g class="tick" opacity="1" transform="translate(0,105.01612903225808)"><line stroke="currentColor" x2="-6"/><text fill="currentColor" x="-9" dy="0.32em">45</text></g><g class="tick" opacity="1" transform="translate(0,163.0806451612903)"><line stroke="currentColor" x2="-6"/><text fill="currentColor" x="-9" dy="0.32em">50</text></g><g class="tick" opacity="1" transform="translate(0,221.1451612903226)"><line stroke="currentColor" x2="-6"/><text fill="currentColor" x="-9" dy="0.32em">55</text></g><g class="tick" opacity="1" transform="translate(0,279.2096774193548)"><line stroke="currentColor" x2="-6"/><text fill="currentColor" x="-9" dy="0.32em">60</text></g><g class="tick" opacity="1" transform="translate(0,337.2741935483871)"><line stroke="currentColor" x2="-6"/><text fill="currentColor" x="-9" dy="0.32em">65</text></g><g class="tick" opacity="1" transform="translate(0,395.33870967741933)"><line stroke="currentColor" x2="-6"/><text fill="currentColor" x="-9" dy="0.32em">70</text></g><g class="tick" opacity="1" transform="translate(0,453.4032258064516)"><line stroke="currentColor" x2="-6"/><text fill="currentColor" x="-9" dy="0.32em">75</text></g><g class="tick" opacity="1" transform="translate(0,511.4677419354839)"><line stroke="currentColor" x2="-6"/><text fill="currentColor" x="-9" dy="0.32em">80</text></g><g class="tick" opacity="1" transform="translate(0,569.5322580645161)"><line stroke="currentColor" x2="-6"/><text fill="currentColor" x="-9" dy="0.32em">85</text></g><g class="tick" opacity="1" transform="translate(0,627.5967741935484)"><line stroke="currentColor" x2="-6"/><text fill="currentColor" x="-9" dy="0.32em">90</text></g><g class="tick" opacity="1" transform="translate(0,685.6612903225807)"><line stroke="currentColor" x2="-6"/><text fill="currentColor" x="-9" dy="0.32em">95</text></g><text y="-6" text-anchor="start" fill="currentColor">2018-2020</text></g><g transform="translate(600,0)" fill="none" font-size="10" font-family="sans-serif" text-anchor="end"><path class="domain" stroke="currentColor" d="M-6,0.5H0.5V720.5H-6"/><g class="tick" opacity="1" transform="translate(0,0.5)"><line stroke="currentColor" x2="-6"/><text fill="currentColor" x="-9" dy="0.32em">20</text></g><g class="tick" opacity="1" transform="translate(0,91.63924050632912)"><line stroke="currentColor" x2="-6"/><text fill="currentColor" x="-9" dy="0.32em">30</text></g><g class="tick" opacity="1" transform="translate(0,182.77848101265823)"><line stroke="currentColor" x2="-6"/><text fill="currentColor" x="-9" dy="0.32em">40</text></g><g class="tick" opacity="1" transform="translate(0,273.9177215189874)"><line stroke="currentColor" x2="-6"/><text fill="currentColor" x="-9" dy="0.32em">50</text></g><g class="tick" opacity="1" transform="translate(0,365.05696202531647)"><line stroke="currentColor" x2="-6"/><text fill="currentColor" x="-9" dy="0.32em">60</text></g><g class="tick" opacity="1" transform="translate(0,456.1962025316456)"><line stroke="currentColor" x2="-6"/><text fill="currentColor" x="-9" dy="0.32em">70</text></g><g class="tick" opacity="1" transform="translate(0,547.3354430379748)"><line stroke="currentColor" x2="-6"/><text fill="currentColor" x="-9" dy="0.32em">80</text></g><g class="tick" opacity="1" transform="translate(0,638.4746835443037)"><line stroke="currentColor" x2="-6"/><text fill="currentColor" x="-9" dy="0.32em">90</text></g><text y="-6" text-anchor="start" fill="currentColor">2019-2020</text></g></g></g><g id="legend" transform="translate(700,50)"><g transform="translate(5,0)"><g class="legendColor" transform="translate(0,0)"><g class="legendCells" transform="translate(0,16)"><g class="cell" transform="translate(0, 0)"><rect class="swatch" height="15" width="15" style="fill: rgb(35, 23, 27);"/><text class="label" transform="translate( 20, 12.5)" font-family="&quot;Arial&quot;, sans-serif" font-size="10px"><tspan x="0" dy="0em">Arsenal</tspan></text></g><g class="cell" transform="translate(0, 21)"><rect class="swatch" height="15" width="15" style="fill: rgb(61, 41, 111);"/><text class="label" transform="translate( 20, 12.5)" font-family="&quot;Arial&quot;, sans-serif" font-size="10px"><tspan x="0" dy="0em">Atalanta</tspan></text></g><g class="cell" transform="translate(0, 42)"><rect class="swatch" height="15" width="15" style="fill: rgb(73, 61, 171);"/><text class="label" transform="translate( 20, 12.5)" font-family="&quot;Arial&quot;, sans-serif" font-size="10px"><tspan x="0" dy="0em">Bologna</tspan></text></g><g class="cell" transform="translate(0, 63)"><rect class="swatch" height="15" width="15" style="fill: rgb(74, 81, 212);"/><text class="label" transform="translate( 20, 12.5)" font-family="&quot;Arial&quot;, sans-serif" font-size="10px"><tspan x="0" dy="0em">Bournemouth</tspan></text></g><g class="cell" transform="translate(0, 84)"><rect class="swatch" height="15" width="15" style="fill: rgb(70, 103, 236);"/><text class="label" transform="translate( 20, 12.5)" font-family="&quot;Arial&quot;, sans-serif" font-size="10px"><tspan x="0" dy="0em">Brighton</tspan></text></g><g class="cell" transform="translate(0, 105)"><rect class="swatch" height="15" width="15" style="fill: rgb(61, 124, 247);"/><text class="label" transform="translate( 20, 12.5)" font-family="&quot;Arial&quot;, sans-serif" font-size="10px"><tspan x="0" dy="0em">Burnley</tspan></text></g><g class="cell" transform="translate(0, 126)"><rect class="swatch" height="15" width="15" style="fill: rgb(52, 145, 248);"/><text class="label" transform="translate( 20, 12.5)" font-family="&quot;Arial&quot;, sans-serif" font-size="10px"><tspan x="0" dy="0em">Cagliari</tspan></text></g><g class="cell" transform="translate(0, 147)"><rect class="swatch" height="15" width="15" style="fill: rgb(44, 165, 241);"/><text class="label" transform="translate( 20, 12.5)" font-family="&quot;Arial&quot;, sans-serif" font-size="10px"><tspan x="0" dy="0em">Chelsea</tspan></text></g><g class="cell" transform="translate(0, 168)"><rect class="swatch" height="15" width="15" style="fill: rgb(39, 184, 229);"/><text class="label" transform="translate( 20, 12.5)" font-family="&quot;Arial&quot;, sans-serif" font-size="10px"><tspan x="0" dy="0em">Crystal Palace</tspan></text></g><g class="cell" transform="translate(0, 189)"><rect class="swatch" height="15" width="15" style="fill: rgb(37, 201, 213);"/><text class="label" transform="translate( 20, 12.5)" font-family="&quot;Arial&quot;, sans-serif" font-size="10px"><tspan x="0" dy="0em">Everton</tspan></text></g><g class="cell" transform="translate(0, 210)"><rect class="swatch" height="15" width="15" style="fill: rgb(39, 216, 194);"/><text class="label" transform="translate( 20, 12.5)" font-family="&quot;Arial&quot;, sans-serif" font-size="10px"><tspan x="0" dy="0em">Fiorentina</tspan></text></g><g class="cell" transform="translate(0, 231)"><rect class="swatch" height="15" width="15" style="fill: rgb(46, 229, 174);"/><text class="label" transform="translate( 20, 12.5)" font-family="&quot;Arial&quot;, sans-serif" font-size="10px"><tspan x="0" dy="0em">Genoa</tspan></text></g><g class="cell" transform="translate(0, 252)"><rect class="swatch" height="15" width="15" style="fill: rgb(58, 239, 154);"/><text class="label" transform="translate( 20, 12.5)" font-family="&quot;Arial&quot;, sans-serif" font-size="10px"><tspan x="0" dy="0em">Inter</tspan></text></g><g class="cell" transform="translate(0, 273)"><rect class="swatch" height="15" width="15" style="fill: rgb(73, 247, 135);"/><text class="label" transform="translate( 20, 12.5)" font-family="&quot;Arial&quot;, sans-serif" font-size="10px"><tspan x="0" dy="0em">Juventus</tspan></text></g><g class="cell" transform="translate(0, 294)"><rect class="swatch" height="15" width="15" style="fill: rgb(92, 252, 117);"/><text class="label" transform="translate( 20, 12.5)" font-family="&quot;Arial&quot;, sans-serif" font-size="10px"><tspan x="0" dy="0em">Lazio</tspan></text></g><g class="cell" transform="translate(0, 315)"><rect class="swatch" height="15" width="15" style="fill: rgb(113, 254, 101);"/><text class="label" transform="translate( 20, 12.5)" font-family="&quot;Arial&quot;, sans-serif" font-size="10px"><tspan x="0" dy="0em">Leicester City</tspan></text></g><g class="cell" transform="translate(0, 336)"><rect class="swatch" height="15" width="15" style="fill: rgb(137, 252, 87);"/><text class="label" transform="translate( 20, 12.5)" font-family="&quot;Arial&quot;, sans-serif" font-size="10px"><tspan x="0" dy="0em">Liverpool</tspan></text></g><g class="cell" transform="translate(0, 357)"><rect class="swatch" height="15" width="15" style="fill: rgb(160, 248, 75);"/><text class="label" transform="translate( 20, 12.5)" font-family="&quot;Arial&quot;, sans-serif" font-size="10px"><tspan x="0" dy="0em">Manchester City</tspan></text></g><g class="cell" transform="translate(0, 378)"><rect class="swatch" height="15" width="15" style="fill: rgb(184, 241, 64);"/><text class="label" transform="translate( 20, 12.5)" font-family="&quot;Arial&quot;, sans-serif" font-size="10px"><tspan x="0" dy="0em">Manchester Utd</tspan></text></g><g class="cell" transform="translate(0, 399)"><rect class="swatch" height="15" width="15" style="fill: rgb(206, 231, 56);"/><text class="label" transform="translate( 20, 12.5)" font-family="&quot;Arial&quot;, sans-serif" font-size="10px"><tspan x="0" dy="0em">Milan</tspan></text></g><g class="cell" transform="translate(0, 420)"><rect class="swatch" height="15" width="15" style="fill: rgb(226, 218, 49);"/><text class="label" transform="translate( 20, 12.5)" font-family="&quot;Arial&quot;, sans-serif" font-size="10px"><tspan x="0" dy="0em">Napoli</tspan></text></g><g class="cell" transform="translate(0, 441)"><rect class="swatch" height="15" width="15" style="fill: rgb(242, 203, 44);"/><text class="label" transform="translate( 20, 12.5)" font-family="&quot;Arial&quot;, sans-serif" font-size="10px"><tspan x="0" dy="0em">Newcastle Utd</tspan></text></g><g class="cell" transform="translate(0, 462)"><rect class="swatch" height="15" width="15" style="fill: rgb(254, 185, 39);"/><text class="label" transform="translate( 20, 12.5)" font-family="&quot;Arial&quot;, sans-serif" font-size="10px"><tspan x="0" dy="0em">Parma</tspan></text></g><g class="cell" transform="translate(0, 483)"><rect class="swatch" height="15" width="15" style="fill: rgb(255, 166, 35);"/><text class="label" transform="translate( 20, 12.5)" font-family="&quot;Arial&quot;, sans-serif" font-size="10px"><tspan x="0" dy="0em">Roma</tspan></text></g><g class="cell" transform="translate(0, 504)"><rect class="swatch" height="15" width="15" style="fill: rgb(255, 146, 32);"/><text class="label" transform="translate( 20, 12.5)" font-family="&quot;Arial&quot;, sans-serif" font-size="10px"><tspan x="0" dy="0em">SPAL</tspan></text></g><g class="cell" transform="translate(0, 525)"><rect class="swatch" height="15" width="15" style="fill: rgb(255, 125, 29);"/><text class="label" transform="translate( 20, 12.5)" font-family="&quot;Arial&quot;, sans-serif" font-size="10px"><tspan x="0" dy="0em">Sampdoria</tspan></text></g><g class="cell" transform="translate(0, 546)"><rect class="swatch" height="15" width="15" style="fill: rgb(251, 103, 25);"/><text class="label" transform="translate( 20, 12.5)" font-family="&quot;Arial&quot;, sans-serif" font-size="10px"><tspan x="0" dy="0em">Sassuolo</tspan></text></g><g class="cell" transform="translate(0, 567)"><rect class="swatch" height="15" width="15" style="fill: rgb(237, 82, 21);"/><text class="label" transform="translate( 20, 12.5)" font-family="&quot;Arial&quot;, sans-serif" font-size="10px"><tspan x="0" dy="0em">Southampton</tspan></text></g><g class="cell" transform="translate(0, 588)"><rect class="swatch" height="15" width="15" style="fill: rgb(220, 62, 17);"/><text class="label" transform="translate( 20, 12.5)" font-family="&quot;Arial&quot;, sans-serif" font-size="10px"><tspan x="0" dy="0em">Torino</tspan></text></g><g class="cell" transform="translate(0, 609)"><rect class="swatch" height="15" width="15" style="fill: rgb(200, 44, 12);"/><text class="label" transform="translate( 20, 12.5)" font-family="&quot;Arial&quot;, sans-serif" font-size="10px"><tspan x="0" dy="0em">Tottenham</tspan></text></g><g class="cell" transform="translate(0, 630)"><rect class="swatch" height="15" width="15" style="fill: rgb(180, 29, 7);"/><text class="label" transform="translate( 20, 12.5)" font-family="&quot;Arial&quot;, sans-serif" font-size="10px"><tspan x="0" dy="0em">Udinese</tspan></text></g><g class="cell" transform="translate(0, 651)"><rect class="swatch" height="15" width="15" style="fill: rgb(162, 18, 2);"/><text class="label" transform="translate( 20, 12.5)" font-family="&quot;Arial&quot;, sans-serif" font-size="10px"><tspan x="0" dy="0em">Watford</tspan></text></g><g class="cell" transform="translate(0, 672)"><rect class="swatch" height="15" width="15" style="fill: rgb(149, 12, 0);"/><text class="label" transform="translate( 20, 12.5)" font-family="&quot;Arial&quot;, sans-serif" font-size="10px"><tspan x="0" dy="0em">West Ham</tspan></text></g><g class="cell" transform="translate(0, 693)"><rect class="swatch" height="15" width="15" style="fill: rgb(144, 12, 0);"/><text class="label" transform="translate( 20, 12.5)" font-family="&quot;Arial&quot;, sans-serif" font-size="10px"><tspan x="0" dy="0em">Wolverhampton</tspan></text></g></g><text class="legendTitle" font-family="&quot;Arial&quot;, sans-serif" font-size="12px" font-weight="bold"><tspan x="0" dy="0em">Teams</tspan></text></g></g></g></svg>